control3min_grf.mot
version=1
nRows=17
nColumns 19
inDegrees=yes
endheader
time	1_ground_force_vx	1_ground_force_vy	1_ground_force_vz	1_ground_force_px	1_ground_force_py	1_ground_force_pz	1_ground_torque_x	1_ground_torque_y	1_ground_torque_z	2_ground_force_vx	2_ground_force_vy	2_ground_force_vz	2_ground_force_px	2_ground_force_py	2_ground_force_pz	2_ground_torque_x	2_ground_torque_y	2_ground_torque_z
            3.751500	            0.321890	            1.440025	            0.509802	           -0.233013	            0.005581	           -0.255695	           -0.736511	            0.139964	           -0.284709	           -2.381291	            0.104556	           19.899189	           -0.232311	            0.006130	           -0.833667	            0.636602	           -4.638499	           -0.167626
            3.752000	            0.183726	            1.801513	            0.282410	           -0.233013	            0.005581	           -0.255695	           -0.764759	            0.140290	           -0.384505	           -2.656491	           -1.553124	           19.705682	           -0.232311	            0.006130	           -0.833667	            0.711801	           -4.638698	           -0.035706
            3.752500	           -0.089999	            1.979366	            0.834137	           -0.233013	            0.005581	           -0.255695	           -0.788359	            0.093962	           -0.396380	           -2.519990	           -0.447224	           19.568781	           -0.232311	            0.006130	           -0.833667	            0.655633	           -4.695483	           -0.073585
            3.753000	            0.276371	            2.160292	            0.696432	           -0.233013	            0.005581	           -0.255695	           -0.895219	            0.186539	           -0.380086	           -2.474346	           -0.079763	           19.851644	           -0.232311	            0.006130	           -0.833667	            0.674205	           -4.638632	           -0.092241
            3.753500	            0.322133	            1.980232	            0.649689	           -0.233013	            0.005581	           -0.255695	           -0.686540	            0.094004	           -0.341444	           -2.703279	           -1.553795	           19.846487	           -0.232311	            0.006130	           -0.833667	            0.711828	           -4.657267	           -0.130025
            3.754000	            0.047399	            2.700455	            0.836887	           -0.233013	            0.005581	           -0.255695	           -0.788546	            0.195219	           -0.277318	           -2.610970	           -1.184658	           19.706977	           -0.232311	            0.006130	           -0.833667	            0.674213	           -4.629515	            0.002044
            3.754500	            0.597970	            2.699775	            1.018945	           -0.233013	            0.005581	           -0.255695	           -0.664613	            0.130315	           -0.141659	           -2.612861	           -0.633050	           19.943588	           -0.232311	            0.006130	           -0.833667	            0.768057	           -4.628504	           -0.186498
            3.755000	            1.974000	            6.122729	            1.580489	           -0.233013	            0.005581	           -0.255695	           -0.520933	            0.038158	            0.010100	           -2.754843	           -0.264424	           19.710322	           -0.232311	            0.006130	           -0.833667	            0.674146	           -4.628977	           -0.148758
            3.755500	            2.983416	           10.086016	            2.236974	           -0.198501	            0.005416	           -0.215558	           -0.069815	           -0.236024	           -0.052348	           -2.612923	           -0.632548	           19.802804	           -0.232311	            0.006130	           -0.833667	            0.674249	           -4.657336	           -0.148859
            3.756000	            4.910344	           12.967100	            3.069969	           -0.189404	            0.005512	           -0.237744	           -0.090807	           -0.239801	           -0.056773	           -2.614231	           -0.264419	           19.851046	           -0.232311	            0.006130	           -0.833667	            0.655455	           -4.657336	           -0.167701
            3.756500	            5.736441	           14.767754	            3.580066	           -0.191928	            0.005572	           -0.251842	           -0.101694	           -0.261798	           -0.063466	           -2.661143	           -0.264086	           19.710282	           -0.232311	            0.006130	           -0.833667	            0.655548	           -4.676443	           -0.111218
            3.757000	            5.598795	           16.029390	            3.631674	           -0.186065	            0.005628	           -0.264668	           -0.042140	           -0.120648	           -0.027334	           -2.706622	           -0.632886	           19.802844	           -0.232311	            0.006130	           -0.833667	            0.655666	           -4.695752	            0.001816
            3.757500	            5.138991	           19.816060	            3.373909	           -0.179044	            0.005713	           -0.284116	            0.017689	            0.068210	            0.011614	           -2.611635	           -1.000510	           19.707634	           -0.232311	            0.006130	           -0.833667	            0.768293	           -4.676305	           -0.035865
            3.758000	            5.458846	           29.909624	            3.737390	           -0.175007	            0.005745	           -0.291272	            0.023730	            0.130021	            0.016247	           -2.659773	           -0.632717	           19.802824	           -0.232311	            0.006130	           -0.833667	            0.711724	           -4.619725	           -0.054489
            3.758500	            7.841711	           42.706588	            4.336624	           -0.180064	            0.005751	           -0.293077	            0.005256	            0.028626	            0.002907	           -2.608873	           -1.737940	           19.939646	           -0.232311	            0.006130	           -0.833667	            0.693195	           -4.695280	           -0.092451
            3.759000	           10.685200	           48.471707	            5.271423	           -0.193714	            0.005732	           -0.289020	           -0.057347	           -0.260148	           -0.028292	           -2.894728	           -0.449080	           19.709724	           -0.232311	            0.006130	           -0.833667	            0.655394	           -4.629314	           -0.073349
            3.759500	           12.888378	           41.078880	            5.784542	           -0.204931	            0.005736	           -0.290650	           -0.105152	           -0.335149	           -0.047194	           -2.471105	           -0.999835	           19.660646	           -0.232311	            0.006130	           -0.833667	            0.730656	           -4.666719	           -0.111216
